<?xml version="1.0" standalone="no"?>
<!DOCTYPE svg PUBLIC "-//W3C//DTD SVG 20010904//EN"
 "http://www.w3.org/TR/2001/REC-SVG-20010904/DTD/svg10.dtd">
<svg version="1.0" xmlns="http://www.w3.org/2000/svg"
 width="835.000000pt" height="472.000000pt" viewBox="0 0 835.000000 472.000000"
 preserveAspectRatio="xMidYMid meet">

<g transform="translate(0.000000,472.000000) scale(0.100000,-0.100000)"
fill="#000000" stroke="none">
<path d="M3185 3480 c-3 -5 -28 -10 -56 -10 -27 0 -49 -4 -49 -10 0 -5 -16
-10 -35 -10 -19 0 -35 -4 -35 -10 0 -5 -11 -10 -25 -10 -14 0 -25 -4 -25 -10
0 -5 -11 -10 -25 -10 -14 0 -25 -4 -25 -10 0 -5 -9 -10 -20 -10 -11 0 -20 -4
-20 -10 0 -5 -7 -10 -15 -10 -8 0 -15 -4 -15 -10 0 -5 -9 -10 -20 -10 -11 0
-20 -4 -20 -8 0 -5 -12 -15 -27 -23 -34 -17 -213 -193 -213 -208 0 -6 -4 -11
-10 -11 -5 0 -10 -7 -10 -15 0 -8 -4 -15 -10 -15 -5 0 -10 -7 -10 -15 0 -8 -4
-15 -8 -15 -5 0 -14 -16 -22 -35 -8 -19 -17 -35 -22 -35 -4 0 -8 -9 -8 -19 0
-11 -4 -23 -10 -26 -5 -3 -10 -17 -10 -31 0 -13 -4 -24 -10 -24 -5 0 -10 -13
-10 -30 0 -16 -4 -30 -10 -30 -5 0 -10 -20 -10 -45 0 -25 -4 -45 -10 -45 -5 0
-10 -20 -10 -45 l0 -45 -172 -1 c-95 -1 -180 -3 -188 -4 -8 -1 -29 -3 -46 -4
-41 -1 -42 -9 -55 -276 -14 -310 -32 -651 -59 -1090 -5 -93 -15 -276 -21 -405
-6 -129 -15 -239 -20 -244 -4 -5 -29 -10 -56 -12 -26 -2 -145 -11 -263 -19
-194 -14 -379 -30 -635 -56 -104 -10 -282 -29 -500 -55 -85 -10 -105 -21 -105
-61 0 -68 24 -72 260 -44 195 24 390 44 585 61 266 23 360 30 519 40 92 6 172
12 176 15 16 10 18 -27 10 -161 -5 -77 -12 -178 -14 -226 l-6 -88 1515 0 1515
0 0 89 c0 50 -4 93 -10 96 -6 4 -10 66 -10 152 l0 146 53 -7 c28 -4 122 -12
207 -17 185 -11 343 -24 500 -39 63 -6 158 -15 210 -20 170 -17 438 -47 493
-56 33 -5 41 -3 62 22 29 34 30 42 10 70 -15 22 -62 32 -252 54 -51 5 -132 15
-180 20 -184 21 -679 64 -930 80 -89 6 -169 13 -178 16 -13 5 -15 31 -15 165
0 99 -4 159 -10 159 -6 0 -10 70 -10 190 0 120 -4 190 -10 190 -6 0 -10 72
-10 195 0 123 -4 195 -10 195 -6 0 -10 67 -10 180 0 113 -4 180 -10 180 -6 0
-10 70 -10 190 0 115 -4 190 -10 190 -5 0 -11 42 -12 93 l-3 92 -217 3 c-216
2 -218 3 -222 25 -30 144 -42 190 -66 249 -50 123 -128 239 -213 317 -16 14
-43 40 -60 56 -18 17 -44 36 -60 44 -15 8 -27 18 -27 23 0 4 -6 8 -13 8 -7 0
-23 9 -35 20 -12 11 -28 20 -37 20 -8 0 -15 5 -15 10 0 6 -11 10 -24 10 -14 0
-28 5 -31 10 -3 6 -15 10 -26 10 -10 0 -19 5 -19 10 0 6 -18 10 -40 10 -22 0
-40 5 -40 10 0 6 -22 10 -50 10 -27 0 -50 5 -50 10 0 6 -46 10 -119 10 -69 0
-122 -4 -126 -10z m221 -159 c5 -5 27 -11 49 -15 87 -12 115 -19 115 -27 0 -5
7 -9 15 -9 20 0 105 -42 105 -52 0 -4 8 -8 18 -8 10 0 24 -9 32 -20 8 -11 20
-20 26 -20 21 0 164 -149 164 -170 0 -6 5 -10 10 -10 6 0 10 -6 10 -14 0 -8 3
-16 8 -18 7 -3 45 -79 63 -125 5 -13 13 -33 18 -45 10 -26 31 -123 31 -144 0
-12 -110 -14 -765 -14 l-765 0 0 29 c0 17 5 33 10 36 6 3 10 24 10 46 0 21 5
39 10 39 6 0 10 14 10 30 0 17 5 30 10 30 6 0 10 9 10 20 0 11 5 20 10 20 6 0
10 9 10 20 0 11 5 20 10 20 6 0 10 5 10 11 0 10 46 81 80 123 57 71 163 152
255 195 28 13 58 27 67 32 10 5 27 9 37 9 11 0 23 5 26 10 3 6 28 10 56 10 27
0 49 5 49 10 0 13 182 14 196 1z m-1026 -967 c0 -125 5 -134 80 -134 75 0 80
9 80 134 l0 106 765 0 765 0 0 -106 c0 -127 5 -134 85 -134 80 0 85 7 85 134
l0 106 139 0 c123 0 140 -2 147 -17 4 -10 11 -108 16 -218 8 -197 18 -389 38
-755 6 -102 15 -268 20 -370 5 -102 14 -275 20 -385 17 -316 25 -546 21 -551
-2 -2 -607 -4 -1344 -4 l-1340 0 7 43 c4 23 11 134 17 247 6 113 14 286 19
385 6 99 14 268 20 375 13 269 28 550 41 775 6 105 13 254 15 333 l5 142 150
0 149 0 0 -106z"/>
<path d="M2703 1225 c-32 -34 -31 -97 2 -130 18 -19 35 -25 70 -25 25 0 45 5
45 10 0 6 7 10 15 10 21 0 35 63 24 105 -6 20 -16 35 -24 35 -8 0 -15 5 -15
10 0 6 -21 10 -47 9 -37 0 -53 -6 -70 -24z"/>
<path d="M3773 1225 c-16 -17 -23 -37 -23 -65 0 -56 34 -90 90 -90 56 0 90 34
90 90 0 58 -34 90 -92 89 -32 0 -49 -6 -65 -24z"/>
<path d="M3440 900 c-8 -5 -25 -10 -37 -10 -58 0 -193 -107 -193 -153 0 -47
37 -57 149 -37 31 5 89 14 129 20 223 31 242 38 242 80 0 30 -49 70 -85 70 -8
0 -15 5 -15 10 0 6 -13 10 -30 10 -16 0 -30 5 -30 10 0 13 -110 13 -130 0z"/>
</g>
</svg>
